<svg xmlns="http://www.w3.org/2000/svg" width="471.828" height="471.828" viewBox="0 0 471.828 471.828"><defs><style>.a{fill:#fff2b2;}</style></defs><path class="a" d="M235.914,0C105.83,0,0,105.83,0,235.914S105.83,471.828,235.914,471.828,471.828,366,471.828,235.914,366,0,235.914,0Zm0,444.182c-114.839,0-208.268-93.428-208.268-208.268S121.075,27.646,235.914,27.646s208.268,93.428,208.268,208.268S350.753,444.182,235.914,444.182Z"/><path class="a" d="M240.622,60C141.026,60,60,141.026,60,240.622s81.026,180.622,180.622,180.622,180.622-81.026,180.622-180.622S340.217,60,240.622,60Zm0,333.6c-84.351,0-152.975-68.624-152.975-152.975S156.27,87.646,240.622,87.646,393.6,156.27,393.6,240.622,324.973,393.6,240.622,393.6Z" transform="translate(-4.708 -4.708)"/><path class="a" d="M346.046,168.775,326.5,149.227,247.65,228.074,169.13,149.553,149.581,169.1,228.1,247.622l-19.549,19.549L228.1,286.72l19.549-19.549L267.2,286.72l19.549-19.549L267.2,247.622Z" transform="translate(-11.736 -11.709)"/><path class="a" d="M241,120h27.646v27.646H241Z" transform="translate(-18.909 -9.415)"/><path class="a" d="M241,362h27.646v27.646H241Z" transform="translate(-18.909 -28.403)"/><path class="a" d="M120,241h27.646v27.646H120Z" transform="translate(-9.415 -18.909)"/><path class="a" d="M362,241h27.646v27.646H362Z" transform="translate(-28.403 -18.909)"/></svg>