<svg xmlns="http://www.w3.org/2000/svg" width="31.791" height="8.011" viewBox="0 0 31.791 8.011"><defs><style>.a{isolation:isolate;}.b{fill:#333;}</style></defs><g transform="translate(-784.87 -539.544)"><g class="a"><g class="a"><path class="b" d="M784.87,539.7h3.642c2.552,0,4.3,1.486,4.3,3.851s-1.749,3.85-4.3,3.85H784.87Zm3.554,5.963a2.113,2.113,0,1,0,0-4.224h-1.376v4.224Z"/><path class="b" d="M793.01,543.55a4.289,4.289,0,1,1,4.28,4.005A4.028,4.028,0,0,1,793.01,543.55Zm6.359,0a2.083,2.083,0,1,0-2.079,2.2A2.062,2.062,0,0,0,799.369,543.55Z"/><path class="b" d="M809.489,539.7v7.7H807.7l-3.4-4.1v4.1h-2.134v-7.7h1.794l3.4,4.1v-4.1Z"/><path class="b" d="M816.661,545.717V547.4h-6.183v-7.7h6.04v1.684h-3.884v1.3h3.422v1.628h-3.422v1.408Z"/></g></g></g></svg>