<svg xmlns="http://www.w3.org/2000/svg" width="21.768" height="21.769" viewBox="0 0 21.768 21.769"><defs><style>.a{fill:#ffe564;}</style></defs><path class="a" d="M15.849,16.667v1.7a3.405,3.405,0,0,1-3.4,3.4H3.9a3.405,3.405,0,0,1-3.4-3.4V3.4A3.405,3.405,0,0,1,3.9,0h8.546a3.405,3.405,0,0,1,3.4,3.4V5.1a.85.85,0,1,1-1.7,0V3.4a1.7,1.7,0,0,0-1.7-1.7H3.9A1.7,1.7,0,0,0,2.2,3.4V18.368a1.7,1.7,0,0,0,1.7,1.7h8.546a1.7,1.7,0,0,0,1.7-1.7v-1.7a.85.85,0,1,1,1.7,0Zm5.8-7.243-1.9-1.9a.85.85,0,1,0-1.2,1.2l1.354,1.355H9.684a.85.85,0,1,0,0,1.7h10.21L18.54,13.132a.85.85,0,1,0,1.2,1.2l1.9-1.9a2.128,2.128,0,0,0,0-3.006Zm0,0" transform="translate(-0.5)"/></svg>