<svg xmlns="http://www.w3.org/2000/svg" width="149.599" height="121.916" viewBox="0 0 149.599 121.916"><defs><style>.a{fill:#c2c2c2;}</style></defs><g transform="translate(-614.518 -354.245)"><path class="a" d="M656.487,454.928c-2.249-1.643-1.468-3.62-.849-5.507,1.138-3.467,1.162-3.486-2.436-6.057-7.182,5.382-14.577,10.713-21.73,16.352a72.386,72.386,0,0,0-15.27,15.7c-.274.4-.973.507-1.474.75-.044-.673-.392-1.576-.084-1.982,2.489-3.289,4.766-6.839,7.738-9.642,8.72-8.223,18.455-15.19,28.432-21.809.342-.227.659-.491,1-.747a2.008,2.008,0,0,0-.258-.6c-6.833-6.959-13.3-14.327-20.6-20.762-10.859-9.577-14.561-29.3-2.141-43.46,6.765-7.711,15.221-12.775,24.652-16.24a142.355,142.355,0,0,1,19.568-5.841c7.729-1.631,15.564-.7,23.159,1.384a118.776,118.776,0,0,1,15.105,4.97,59.675,59.675,0,0,1,11.209,6.534,179.487,179.487,0,0,1,15.249,12.06,27.419,27.419,0,0,1,5.939,8.09c3.724,7.458,7.01,15.135,10.542,22.692a7.479,7.479,0,0,0,2.005,2.5c2.136,1.752,4.355,3.41,6.6,5.023,1.25.9,1.6,1.958.964,3.756-4.725-4.508-10.811-7.113-13.317-13.817-2.623-7.018-6.012-13.763-9.284-20.521-2.611-5.391-7.413-8.847-11.957-12.445-2.867-2.27-5.965-4.244-8.866-6.473-6.676-5.13-14.584-7.372-22.451-9.709-7.016-2.085-14.238-3.34-21.489-2.353a103.56,103.56,0,0,0-16.409,4.055c-8.682,2.681-16.921,6.385-24,12.24-5.827,4.817-10.485,10.6-12.184,18.076-2.218,9.758-.131,18.756,6.86,26.084,9.4,9.857,19.109,19.426,28.668,29.136a19.436,19.436,0,0,1,1.536,2.013l-.353.52-2.673-.8C657.429,450.325,656.968,452.579,656.487,454.928Z"/><path class="a" d="M718.315,508.615c-2.881,1.343-5.111,3.015-7.534,2.387a12.012,12.012,0,0,1,.394-2.825,3.433,3.433,0,0,1,1.543-1.841c.613-.251,1.511.176,2.279.323.844.162,1.682.352,2.525.518.674.133,1.352.247,2.475.451l.872-3.008a9.22,9.22,0,0,1,1.633,2.054c1.538,4.269,2.937,8.588,4.487,12.852a2.947,2.947,0,0,0,1.589,1.674,2.438,2.438,0,0,0,2.079-.653c1.369-1.557,2.445-3.3,4.963-3.226.658.019,1.3-1.128,2.041-1.585a5.509,5.509,0,0,1,1.665-.4,4.8,4.8,0,0,1,.1,1.693c-.287.905-.854,1.717-1.207,2.607-1.493,3.763-2.173,4.048-5.986,2.952a10.707,10.707,0,0,0-3.15.059,3.311,3.311,0,0,1-3.743-2.776c-.718-2.847-1.882-5.432-4.609-7.022a9.706,9.706,0,0,1-1.779-1.827l-2.844,1.612-.58-.552Z" transform="translate(-56.289 -87.929)"/><path class="a" d="M660.188,474.34a16.12,16.12,0,0,1,2.76,8.366,3.378,3.378,0,0,0,2.312,3.256c2.222.916,4.406,1.925,6.829,2.993a21.826,21.826,0,0,0,1.175-4.414,5.826,5.826,0,0,1,3.624-5.3,3.985,3.985,0,0,0,2.326-3.392c.286-2.286.622-4.565.938-6.863.818,1.553,1.766,3.306,2.655,5.088a1.172,1.172,0,0,1-.07.972c-1.289,2.059-2.264,4.5-4.029,6.03a16.89,16.89,0,0,0-5.257,7.466c-.193.566-.5,1.091-1.007,2.158-3.076-1.556-6.008-2.988-8.878-4.535a2.714,2.714,0,0,1-1.215-1.585C661.563,481.18,660.9,477.755,660.188,474.34Z" transform="translate(-26.705 -67.091)"/><path class="a" d="M760.2,457.35c-.821.524-1.111.845-1.447.9-5.317.917-10.641,1.8-15.963,2.7-.405.069-.8.214-1.2.287-4.973.906-5.895.512-8.629-3.827a5.882,5.882,0,0,1-.451-1.643,4.342,4.342,0,0,1,1.7.095c4.453,2.333,9.189,2,13.957,1.669,3.477-.242,6.964-.325,10.447-.461A10.876,10.876,0,0,1,760.2,457.35Z" transform="translate(-68.994 -59.342)"/><path class="a" d="M768.608,598.144a8.751,8.751,0,0,1,1.939.7,13.4,13.4,0,0,1,2.757,2.184c4.816,5.431,17.85,5.156,22.847-1.684a26.5,26.5,0,0,1,2.32-2.469l.735.35c-.162.678-.12,1.52-.516,2.009-5.593,6.9-12.949,9.212-21.47,6.632-3.754-1.137-6.125-4.493-8.968-7.028Z" transform="translate(-89.894 -141.877)"/><path class="a" d="M768.378,474.814c-1.16,1.966-2.554,1.353-3.814,1.1a11.475,11.475,0,0,0-9.039,1.905,18.384,18.384,0,0,0,.508,1.91c.477,1.262.516,2.249-1.071,2.744-1.462.456-4.089-.057-4.546-1.057-.125-.272-.171-.814-.014-.945,1.855-1.544,2.631-4.247,5.278-4.932a21.629,21.629,0,0,1,4.6-1.126C762.973,474.337,765.677,474.658,768.378,474.814Z" transform="translate(-79.398 -70.259)"/><path class="a" d="M770.8,550.071a31.616,31.616,0,0,0,3.536-1.842c2.173-1.487,8.811-1.794,10.939-.32.308.214.622,1,.5,1.139a1.9,1.9,0,0,1-1.319.672,47.028,47.028,0,0,1-4.922-.574,3.946,3.946,0,0,0-3.919,1.052,20.923,20.923,0,0,1-4.647,3,3.064,3.064,0,0,1-1.811.217,6.433,6.433,0,0,1-.452-2.891c.076-.472,1.083-.794,1.669-1.184Z" transform="translate(-90.135 -112.68)"/><path class="a" d="M735.534,623.841c7.761,2.138,15.388,4.22,22.994,6.374.529.15.907.83,1.355,1.264-.5.237-1.071.769-1.487.667-7.422-1.819-14.908-3.468-21.672-7.248A7.179,7.179,0,0,1,735.534,623.841Z" transform="translate(-70.763 -157.643)"/><path class="a" d="M771.16,489.028l3.063.431-2.458,2.142,1.994.137c.64,1.442.731,2.6-1.173,3.1-.263.069-.4.75-.534,1.166-.588,1.776-1.729,2.078-3.025.781-.1-.1-.183-.205-.276-.308-3.165-3.528-3.1-3.931.911-6.283a14.537,14.537,0,0,0,1.568-1.224Z" transform="translate(-88.871 -78.778)"/><path class="a" d="M857.12,599.643c1.3-2.52,15.862-13.025,17.527-12.646C873.862,589.057,858.885,599.863,857.12,599.643Z" transform="translate(-141.859 -136.093)"/><path class="a" d="M867.449,560.246a8.758,8.758,0,0,1,1.236-2.072q4.378-4.122,8.906-8.081c.344-.3,1.067-.172,1.614-.242-.049.558.117,1.32-.185,1.638-1.137,1.2-2.415,2.266-3.659,3.361q-2.882,2.533-5.795,5.028a13.55,13.55,0,0,1-1.432.947Z" transform="translate(-147.899 -114.379)"/><path class="a" d="M770.644,483.833a14.6,14.6,0,0,1-2.81.6,2.523,2.523,0,0,1-1.953-.695c-.372-.635-.545-1.982-.165-2.336a7.424,7.424,0,0,1,2.927-1.217,9.382,9.382,0,0,1,.757,1.48l.56-1.031h4.75l.289.631-4.422,2.625Z" transform="translate(-88.286 -73.642)"/><path class="a" d="M703.622,509.458l-2.558-3.906c2.716-1.083,4.739-4.381,8.722-3.156a24.321,24.321,0,0,0,2.879.164c.427.074.777.6,1.162.914a5.9,5.9,0,0,1-1.291.769,2.168,2.168,0,0,1-1.191-.128,6.753,6.753,0,0,0-6.088,1.031c-.814.536-1.41.918-1.1,2.084C704.3,507.784,703.876,508.492,703.622,509.458Z" transform="translate(-50.607 -86.473)"/><path class="a" d="M726.792,586.7a17.581,17.581,0,0,1,1.875.5c3.566,1.416,7.134,2.827,10.666,4.323.519.22.85.883,1.268,1.341-.433.223-.927.711-1.289.628a29.785,29.785,0,0,1-12.238-5.674C726.912,587.687,726.939,587.323,726.792,586.7Z" transform="translate(-65.651 -135.928)"/><path class="a" d="M725.448,560.886c-1.286-.63-2.625-1.174-3.842-1.916-1.166-.712-2.2-1.635-3.3-2.457-2.487-1.858-2.437-2.579.3-4.371l6.959,8.368Z" transform="translate(-59.628 -115.718)"/><path class="a" d="M784.711,567.152c-1.582-.844-3.629-1.3-3.837-2.18-.436-1.856,1.819-1.433,2.889-2.061a2.89,2.89,0,0,1,.56-.245c1.086-.359,2.284-.958,3.152.2a2.184,2.184,0,0,1,.23,2.009A18.284,18.284,0,0,1,784.711,567.152Z" transform="translate(-97.243 -121.592)"/><path class="a" d="M721.054,449.477c1.8,1.387,1.852,3.335,1.817,4.932-.069,3.187.519,5.837,3.39,7.643.269.169.233.823.338,1.252-.484.086-1.25.406-1.407.218-1.243-1.492-2.918-2.928-3.406-4.675-.745-2.666-.649-5.568-.894-8.371A5.154,5.154,0,0,1,721.054,449.477Z" transform="translate(-62.2 -55.686)"/><path class="a" d="M709.238,524.367c-1.963.819-3.919,1.651-5.9,2.437a1.046,1.046,0,0,1-.7-.234,13.507,13.507,0,0,1,.675-3.252,1.96,1.96,0,0,1,1.7-.8,32.386,32.386,0,0,1,4.018,1.3Z" transform="translate(-51.532 -98.388)"/><path class="a" d="M749.381,581.646c-3.449-2.357-7.693-3.6-10.092-7.4C742.614,576.777,747.211,577.482,749.381,581.646Z" transform="translate(-72.958 -128.641)"/><path class="a" d="M723.367,605.327c-3.2-.227-5.442-3.285-5.48-7.51Z" transform="translate(-60.444 -142.426)"/><path class="a" d="M753.512,473.983l-7.068,2.857c.887-2.379,3.737-3.593,6.919-3.378Z" transform="translate(-77.142 -69.696)"/><path class="a" d="M721.549,493.425c2.255-.7,3.8.249,4.44,2.523C724.01,495.986,723.041,494.618,721.549,493.425Z" transform="translate(-62.585 -81.252)"/><path class="a" d="M762.435,523.417,759.1,526l-.745-.714a19.327,19.327,0,0,1,2.155-2.455c.338-.282,1.109-.047,1.683-.047Z" transform="translate(-84.108 -98.495)"/></g></svg>